<svg width="124" height="36" viewBox="0 0 124 36" fill="none" xmlns="http://www.w3.org/2000/svg">
<path d="M4.056 20.088V27H2.04V10.2H8.04C8.904 10.2 9.656 10.328 10.296 10.584C10.936 10.824 11.464 11.152 11.88 11.568C12.312 11.984 12.632 12.472 12.84 13.032C13.064 13.576 13.176 14.152 13.176 14.76V15.48C13.176 16.088 13.064 16.672 12.84 17.232C12.632 17.792 12.312 18.288 11.88 18.72C11.448 19.136 10.912 19.472 10.272 19.728C9.632 19.968 8.888 20.088 8.04 20.088H4.056ZM4.056 18.216H7.8C10.04 18.216 11.16 17.256 11.16 15.336V14.904C11.16 14.056 10.88 13.376 10.32 12.864C9.776 12.336 8.936 12.072 7.8 12.072H4.056V18.216ZM18.6553 27H16.7833V10.2H18.6553V17.256H18.9433C19.3113 16.488 19.8233 15.88 20.4793 15.432C21.1513 14.984 21.9673 14.76 22.9273 14.76C24.2233 14.76 25.2713 15.192 26.0713 16.056C26.8873 16.904 27.2953 18.184 27.2953 19.896V27H25.4233V20.28C25.4233 19.032 25.1433 18.096 24.5833 17.472C24.0233 16.848 23.2633 16.536 22.3033 16.536C21.1673 16.536 20.2713 16.928 19.6153 17.712C18.9753 18.48 18.6553 19.512 18.6553 20.808V27ZM40.1186 24.984H39.8306C39.4466 25.784 38.9106 26.376 38.2226 26.76C37.5506 27.144 36.8386 27.336 36.0866 27.336C35.3026 27.336 34.5746 27.208 33.9026 26.952C33.2306 26.68 32.6386 26.288 32.1266 25.776C31.6306 25.248 31.2386 24.608 30.9506 23.856C30.6626 23.104 30.5186 22.232 30.5186 21.24V20.856C30.5186 19.88 30.6626 19.016 30.9506 18.264C31.2386 17.512 31.6306 16.88 32.1266 16.368C32.6386 15.84 33.2306 15.44 33.9026 15.168C34.5746 14.896 35.2866 14.76 36.0386 14.76C36.8546 14.76 37.5906 14.944 38.2466 15.312C38.9186 15.664 39.4466 16.216 39.8306 16.968H40.1186V15.096H41.9906V24.552C41.9906 25.032 42.2066 25.272 42.6386 25.272H43.2386V27H41.9666C41.4226 27 40.9746 26.824 40.6226 26.472C40.2866 26.12 40.1186 25.672 40.1186 25.128V24.984ZM36.2786 25.56C36.8386 25.56 37.3506 25.456 37.8146 25.248C38.2946 25.04 38.7026 24.744 39.0386 24.36C39.3746 23.976 39.6386 23.52 39.8306 22.992C40.0226 22.448 40.1186 21.848 40.1186 21.192V20.904C40.1186 20.264 40.0226 19.68 39.8306 19.152C39.6386 18.608 39.3666 18.144 39.0146 17.76C38.6786 17.376 38.2706 17.08 37.7906 16.872C37.3266 16.648 36.8226 16.536 36.2786 16.536C35.7186 16.536 35.2066 16.64 34.7426 16.848C34.2786 17.056 33.8706 17.352 33.5186 17.736C33.1826 18.104 32.9186 18.56 32.7266 19.104C32.5346 19.632 32.4386 20.216 32.4386 20.856V21.24C32.4386 22.6 32.7906 23.664 33.4946 24.432C34.2146 25.184 35.1426 25.56 36.2786 25.56ZM54.8139 24.84H54.5259C54.1419 25.608 53.6379 26.216 53.0139 26.664C52.3899 27.112 51.5979 27.336 50.6379 27.336C49.9819 27.336 49.3739 27.224 48.8139 27C48.2699 26.792 47.7979 26.472 47.3979 26.04C47.0139 25.608 46.7099 25.072 46.4859 24.432C46.2779 23.792 46.1739 23.048 46.1739 22.2V15.096H48.0459V21.96C48.0459 23.208 48.3019 24.12 48.8139 24.696C49.3259 25.272 50.1099 25.56 51.1659 25.56C52.3019 25.56 53.1899 25.176 53.8299 24.408C54.4859 23.624 54.8139 22.584 54.8139 21.288V15.096H56.6859V29.928C56.6859 30.472 56.5099 30.92 56.1579 31.272C55.8219 31.624 55.3819 31.8 54.8379 31.8H48.0459V30.072H54.1659C54.5979 30.072 54.8139 29.832 54.8139 29.352V24.84Z" fill="black"/>
<rect x="63.8076" y="1.19238" width="59.2308" height="33.6154" rx="9.61538" fill="#292C36"/>
<path d="M74.8151 22.848H77.6951V13.952H74.9111V12.8H78.9431V22.848H81.8231V24H74.8151V22.848ZM90.372 22.656H90.18C89.924 23.1893 89.5666 23.584 89.108 23.84C88.66 24.096 88.1853 24.224 87.684 24.224C87.1613 24.224 86.676 24.1387 86.228 23.968C85.78 23.7867 85.3853 23.5253 85.044 23.184C84.7133 22.832 84.452 22.4053 84.26 21.904C84.068 21.4027 83.972 20.8213 83.972 20.16V19.904C83.972 19.2533 84.068 18.6773 84.26 18.176C84.452 17.6747 84.7133 17.2533 85.044 16.912C85.3853 16.56 85.78 16.2933 86.228 16.112C86.676 15.9307 87.1506 15.84 87.652 15.84C88.196 15.84 88.6866 15.9627 89.124 16.208C89.572 16.4427 89.924 16.8107 90.18 17.312H90.372V16.064H91.62V22.368C91.62 22.688 91.764 22.848 92.052 22.848H92.452V24H91.604C91.2413 24 90.9426 23.8827 90.708 23.648C90.484 23.4133 90.372 23.1147 90.372 22.752V22.656ZM87.812 23.04C88.1853 23.04 88.5266 22.9707 88.836 22.832C89.156 22.6933 89.428 22.496 89.652 22.24C89.876 21.984 90.052 21.68 90.18 21.328C90.308 20.9653 90.372 20.5653 90.372 20.128V19.936C90.372 19.5093 90.308 19.12 90.18 18.768C90.052 18.4053 89.8706 18.096 89.636 17.84C89.412 17.584 89.14 17.3867 88.82 17.248C88.5106 17.0987 88.1746 17.024 87.812 17.024C87.4386 17.024 87.0973 17.0933 86.788 17.232C86.4786 17.3707 86.2066 17.568 85.972 17.824C85.748 18.0693 85.572 18.3733 85.444 18.736C85.316 19.088 85.252 19.4773 85.252 19.904V20.16C85.252 21.0667 85.4866 21.776 85.956 22.288C86.436 22.7893 87.0546 23.04 87.812 23.04ZM95.6568 24H94.4088V16.064H95.6568V17.408H95.8488C96.3395 16.3627 97.1928 15.84 98.4088 15.84C99.3262 15.84 100.057 16.128 100.601 16.704C101.145 17.2693 101.417 18.1227 101.417 19.264V24H100.169V19.52C100.169 18.688 99.9822 18.064 99.6088 17.648C99.2355 17.232 98.7288 17.024 98.0888 17.024C97.3315 17.024 96.7342 17.2853 96.2968 17.808C95.8702 18.32 95.6568 19.008 95.6568 19.872V24ZM109.854 16.064H111.278L108.942 19.84V20.032L111.47 24H110.014L107.854 20.512H107.566L105.406 24H103.95L106.478 20.032V19.84L104.142 16.064H105.566L107.566 19.36H107.854L109.854 16.064Z" fill="white"/>
</svg>
